<mxfile host="app.diagrams.net" modified="2023-05-23T19:55:41.638Z" agent="Mozilla/5.0 (Windows NT 10.0; Win64; x64) AppleWebKit/537.36 (KHTML, like Gecko) Chrome/112.0.0.0 Safari/537.36 OPR/98.0.0.0" etag="GHwxONmrNQvP6y6cN-28" version="21.3.0" type="github">
  <diagram name="Page-1" id="PWM_rzSlRTb9qlCgCLb8">
    <mxGraphModel dx="1394" dy="766" grid="1" gridSize="10" guides="1" tooltips="1" connect="1" arrows="1" fold="1" page="1" pageScale="1" pageWidth="3300" pageHeight="4681" math="0" shadow="0">
      <root>
        <mxCell id="0" />
        <mxCell id="1" parent="0" />
        <mxCell id="DjwpSO35BmB2LVuKxRWM-1" value="ROS" style="rounded=1;whiteSpace=wrap;html=1;fillColor=#d5e8d4;strokeColor=#82b366;" vertex="1" parent="1">
          <mxGeometry x="515" y="130" width="120" height="60" as="geometry" />
        </mxCell>
        <mxCell id="DjwpSO35BmB2LVuKxRWM-2" style="edgeStyle=orthogonalEdgeStyle;rounded=0;orthogonalLoop=1;jettySize=auto;html=1;exitX=0;exitY=0.5;exitDx=0;exitDy=0;" edge="1" parent="1" source="DjwpSO35BmB2LVuKxRWM-3" target="DjwpSO35BmB2LVuKxRWM-1">
          <mxGeometry relative="1" as="geometry">
            <mxPoint x="645" y="159.52631578947376" as="targetPoint" />
          </mxGeometry>
        </mxCell>
        <mxCell id="DjwpSO35BmB2LVuKxRWM-3" value="Payment&amp;nbsp; Gateway" style="rounded=1;whiteSpace=wrap;html=1;fillColor=#d5e8d4;strokeColor=#82b366;" vertex="1" parent="1">
          <mxGeometry x="845" y="130" width="120" height="60" as="geometry" />
        </mxCell>
        <mxCell id="DjwpSO35BmB2LVuKxRWM-4" value="Interfaces&lt;br&gt;" style="text;html=1;strokeColor=none;fillColor=none;align=center;verticalAlign=middle;whiteSpace=wrap;rounded=0;" vertex="1" parent="1">
          <mxGeometry x="715" y="132" width="60" height="30" as="geometry" />
        </mxCell>
        <mxCell id="DjwpSO35BmB2LVuKxRWM-5" value="Interfaces&lt;br&gt;" style="text;html=1;strokeColor=none;fillColor=none;align=center;verticalAlign=middle;whiteSpace=wrap;rounded=0;" vertex="1" parent="1">
          <mxGeometry x="510" y="240" width="60" height="30" as="geometry" />
        </mxCell>
        <mxCell id="DjwpSO35BmB2LVuKxRWM-6" value="Inventory Management System" style="rounded=1;whiteSpace=wrap;html=1;fillColor=#d5e8d4;strokeColor=#82b366;" vertex="1" parent="1">
          <mxGeometry x="515" y="316" width="120" height="60" as="geometry" />
        </mxCell>
        <mxCell id="DjwpSO35BmB2LVuKxRWM-7" value="" style="endArrow=classic;html=1;rounded=0;exitX=0.5;exitY=0;exitDx=0;exitDy=0;" edge="1" parent="1" source="DjwpSO35BmB2LVuKxRWM-6" target="DjwpSO35BmB2LVuKxRWM-1">
          <mxGeometry width="50" height="50" relative="1" as="geometry">
            <mxPoint x="665" y="345" as="sourcePoint" />
            <mxPoint x="715" y="295" as="targetPoint" />
          </mxGeometry>
        </mxCell>
        <mxCell id="DjwpSO35BmB2LVuKxRWM-8" value="Customer Relation Management System" style="rounded=1;whiteSpace=wrap;html=1;fillColor=#d5e8d4;strokeColor=#82b366;" vertex="1" parent="1">
          <mxGeometry x="845" y="316" width="120" height="60" as="geometry" />
        </mxCell>
        <mxCell id="DjwpSO35BmB2LVuKxRWM-9" style="edgeStyle=orthogonalEdgeStyle;rounded=0;orthogonalLoop=1;jettySize=auto;html=1;entryX=0.5;entryY=0;entryDx=0;entryDy=0;" edge="1" parent="1" source="DjwpSO35BmB2LVuKxRWM-3" target="DjwpSO35BmB2LVuKxRWM-8">
          <mxGeometry relative="1" as="geometry">
            <mxPoint x="645" y="170" as="targetPoint" />
            <mxPoint x="855" y="170" as="sourcePoint" />
          </mxGeometry>
        </mxCell>
        <mxCell id="DjwpSO35BmB2LVuKxRWM-10" value="Interfaces&lt;br&gt;" style="text;html=1;strokeColor=none;fillColor=none;align=center;verticalAlign=middle;whiteSpace=wrap;rounded=0;" vertex="1" parent="1">
          <mxGeometry x="835" y="242.5" width="60" height="30" as="geometry" />
        </mxCell>
        <mxCell id="DjwpSO35BmB2LVuKxRWM-11" style="edgeStyle=orthogonalEdgeStyle;rounded=0;orthogonalLoop=1;jettySize=auto;html=1;" edge="1" parent="1" source="DjwpSO35BmB2LVuKxRWM-8" target="DjwpSO35BmB2LVuKxRWM-6">
          <mxGeometry relative="1" as="geometry">
            <mxPoint x="755" y="341.25" as="targetPoint" />
            <mxPoint x="755" y="206.25" as="sourcePoint" />
          </mxGeometry>
        </mxCell>
        <mxCell id="DjwpSO35BmB2LVuKxRWM-12" value="Interfaces&lt;br&gt;" style="text;html=1;strokeColor=none;fillColor=none;align=center;verticalAlign=middle;whiteSpace=wrap;rounded=0;" vertex="1" parent="1">
          <mxGeometry x="715" y="316" width="60" height="30" as="geometry" />
        </mxCell>
        <mxCell id="DjwpSO35BmB2LVuKxRWM-13" value="Marketing Tools" style="rounded=1;whiteSpace=wrap;html=1;fillColor=#d5e8d4;strokeColor=#82b366;" vertex="1" parent="1">
          <mxGeometry x="845" y="489" width="120" height="60" as="geometry" />
        </mxCell>
        <mxCell id="DjwpSO35BmB2LVuKxRWM-14" style="edgeStyle=orthogonalEdgeStyle;rounded=0;orthogonalLoop=1;jettySize=auto;html=1;" edge="1" parent="1" source="DjwpSO35BmB2LVuKxRWM-13" target="DjwpSO35BmB2LVuKxRWM-8">
          <mxGeometry relative="1" as="geometry">
            <mxPoint x="535" y="442.12" as="targetPoint" />
            <mxPoint x="745" y="442.12" as="sourcePoint" />
            <Array as="points" />
          </mxGeometry>
        </mxCell>
        <mxCell id="DjwpSO35BmB2LVuKxRWM-15" value="Interfaces&lt;br&gt;" style="text;html=1;strokeColor=none;fillColor=none;align=center;verticalAlign=middle;whiteSpace=wrap;rounded=0;" vertex="1" parent="1">
          <mxGeometry x="705" y="489" width="60" height="30" as="geometry" />
        </mxCell>
        <mxCell id="DjwpSO35BmB2LVuKxRWM-16" style="edgeStyle=orthogonalEdgeStyle;rounded=0;orthogonalLoop=1;jettySize=auto;html=1;" edge="1" parent="1" source="DjwpSO35BmB2LVuKxRWM-18" target="DjwpSO35BmB2LVuKxRWM-13">
          <mxGeometry relative="1" as="geometry">
            <mxPoint x="620" y="540" as="targetPoint" />
            <mxPoint x="845" y="519" as="sourcePoint" />
          </mxGeometry>
        </mxCell>
        <mxCell id="DjwpSO35BmB2LVuKxRWM-17" value="Interfaces&lt;br&gt;" style="text;html=1;strokeColor=none;fillColor=none;align=center;verticalAlign=middle;whiteSpace=wrap;rounded=0;" vertex="1" parent="1">
          <mxGeometry x="835" y="430" width="60" height="30" as="geometry" />
        </mxCell>
        <mxCell id="DjwpSO35BmB2LVuKxRWM-18" value="Social Media Platform" style="rounded=1;whiteSpace=wrap;html=1;fillColor=#d5e8d4;strokeColor=#82b366;" vertex="1" parent="1">
          <mxGeometry x="530" y="489" width="120" height="60" as="geometry" />
        </mxCell>
        <mxCell id="DjwpSO35BmB2LVuKxRWM-19" style="edgeStyle=orthogonalEdgeStyle;rounded=0;orthogonalLoop=1;jettySize=auto;html=1;entryX=1;entryY=0.5;entryDx=0;entryDy=0;" edge="1" parent="1" source="DjwpSO35BmB2LVuKxRWM-20" target="DjwpSO35BmB2LVuKxRWM-23">
          <mxGeometry relative="1" as="geometry" />
        </mxCell>
        <mxCell id="DjwpSO35BmB2LVuKxRWM-20" value="Restaurant Ordering System&lt;br&gt;(ROS)" style="ellipse;whiteSpace=wrap;html=1;aspect=fixed;fillColor=#f8cecc;strokeColor=#b85450;" vertex="1" parent="1">
          <mxGeometry x="1630" y="270" width="140" height="140" as="geometry" />
        </mxCell>
        <mxCell id="DjwpSO35BmB2LVuKxRWM-21" style="edgeStyle=orthogonalEdgeStyle;rounded=0;orthogonalLoop=1;jettySize=auto;html=1;exitX=0;exitY=0.5;exitDx=0;exitDy=0;" edge="1" parent="1" source="DjwpSO35BmB2LVuKxRWM-22" target="DjwpSO35BmB2LVuKxRWM-20">
          <mxGeometry relative="1" as="geometry" />
        </mxCell>
        <mxCell id="DjwpSO35BmB2LVuKxRWM-22" value="Customers Mobile Device &lt;br&gt;(ordering interface)" style="rounded=0;whiteSpace=wrap;html=1;fillColor=#ffe6cc;strokeColor=#d79b00;" vertex="1" parent="1">
          <mxGeometry x="1910" y="310" width="120" height="60" as="geometry" />
        </mxCell>
        <mxCell id="DjwpSO35BmB2LVuKxRWM-23" value="Restaurant&#39;s kitchen display &lt;br&gt;(order display interface)" style="rounded=0;whiteSpace=wrap;html=1;fillColor=#ffe6cc;strokeColor=#d79b00;" vertex="1" parent="1">
          <mxGeometry x="1350" y="310" width="120" height="60" as="geometry" />
        </mxCell>
        <mxCell id="DjwpSO35BmB2LVuKxRWM-24" style="edgeStyle=orthogonalEdgeStyle;rounded=0;orthogonalLoop=1;jettySize=auto;html=1;exitX=0.5;exitY=1;exitDx=0;exitDy=0;" edge="1" parent="1" source="DjwpSO35BmB2LVuKxRWM-25" target="DjwpSO35BmB2LVuKxRWM-20">
          <mxGeometry relative="1" as="geometry" />
        </mxCell>
        <mxCell id="DjwpSO35BmB2LVuKxRWM-25" value="Payment Gateway" style="rounded=0;whiteSpace=wrap;html=1;fillColor=#ffe6cc;strokeColor=#d79b00;" vertex="1" parent="1">
          <mxGeometry x="1640" y="102" width="120" height="60" as="geometry" />
        </mxCell>
        <mxCell id="DjwpSO35BmB2LVuKxRWM-26" value="Database &lt;br&gt;(storage of orders, menu items, etc.)" style="rounded=0;whiteSpace=wrap;html=1;fillColor=#e1d5e7;strokeColor=#9673a6;" vertex="1" parent="1">
          <mxGeometry x="1640" y="530" width="120" height="60" as="geometry" />
        </mxCell>
        <mxCell id="DjwpSO35BmB2LVuKxRWM-27" value="Order Information" style="text;html=1;strokeColor=none;fillColor=none;align=center;verticalAlign=middle;whiteSpace=wrap;rounded=0;" vertex="1" parent="1">
          <mxGeometry x="1810" y="310" width="60" height="30" as="geometry" />
        </mxCell>
        <mxCell id="DjwpSO35BmB2LVuKxRWM-28" value="Order Status Update" style="text;html=1;strokeColor=none;fillColor=none;align=center;verticalAlign=middle;whiteSpace=wrap;rounded=0;" vertex="1" parent="1">
          <mxGeometry x="1510" y="310" width="90" height="30" as="geometry" />
        </mxCell>
        <mxCell id="DjwpSO35BmB2LVuKxRWM-29" value="Order Information" style="text;html=1;strokeColor=none;fillColor=none;align=center;verticalAlign=middle;whiteSpace=wrap;rounded=0;" vertex="1" parent="1">
          <mxGeometry x="1700" y="220" width="60" height="30" as="geometry" />
        </mxCell>
        <mxCell id="DjwpSO35BmB2LVuKxRWM-30" value="" style="endArrow=classic;startArrow=classic;html=1;rounded=0;" edge="1" parent="1" source="DjwpSO35BmB2LVuKxRWM-26" target="DjwpSO35BmB2LVuKxRWM-20">
          <mxGeometry width="50" height="50" relative="1" as="geometry">
            <mxPoint x="1330" y="410" as="sourcePoint" />
            <mxPoint x="1380" y="360" as="targetPoint" />
          </mxGeometry>
        </mxCell>
        <mxCell id="DjwpSO35BmB2LVuKxRWM-31" value="Accesses" style="text;html=1;strokeColor=none;fillColor=none;align=center;verticalAlign=middle;whiteSpace=wrap;rounded=0;" vertex="1" parent="1">
          <mxGeometry x="1710" y="450" width="60" height="30" as="geometry" />
        </mxCell>
        <mxCell id="DjwpSO35BmB2LVuKxRWM-32" value="Payment Gateway" style="rounded=0;whiteSpace=wrap;html=1;fillColor=#dae8fc;strokeColor=#6c8ebf;" vertex="1" parent="1">
          <mxGeometry x="675" y="1125" width="120" height="90" as="geometry" />
        </mxCell>
        <mxCell id="DjwpSO35BmB2LVuKxRWM-33" style="edgeStyle=orthogonalEdgeStyle;rounded=0;orthogonalLoop=1;jettySize=auto;html=1;entryX=0.218;entryY=1.005;entryDx=0;entryDy=0;entryPerimeter=0;" edge="1" parent="1" source="DjwpSO35BmB2LVuKxRWM-34" target="DjwpSO35BmB2LVuKxRWM-44">
          <mxGeometry relative="1" as="geometry" />
        </mxCell>
        <mxCell id="DjwpSO35BmB2LVuKxRWM-34" value="Notify" style="ellipse;whiteSpace=wrap;html=1;aspect=fixed;fillColor=#f5f5f5;fontColor=#333333;strokeColor=#666666;" vertex="1" parent="1">
          <mxGeometry x="1198" y="1280" width="80" height="80" as="geometry" />
        </mxCell>
        <mxCell id="DjwpSO35BmB2LVuKxRWM-35" value="Customer" style="rounded=1;whiteSpace=wrap;html=1;fillColor=#dae8fc;strokeColor=#6c8ebf;" vertex="1" parent="1">
          <mxGeometry x="1210" y="820" width="130" height="80" as="geometry" />
        </mxCell>
        <mxCell id="DjwpSO35BmB2LVuKxRWM-36" style="edgeStyle=orthogonalEdgeStyle;rounded=0;orthogonalLoop=1;jettySize=auto;html=1;entryX=1;entryY=0.5;entryDx=0;entryDy=0;" edge="1" parent="1" source="DjwpSO35BmB2LVuKxRWM-38" target="DjwpSO35BmB2LVuKxRWM-32">
          <mxGeometry relative="1" as="geometry" />
        </mxCell>
        <mxCell id="DjwpSO35BmB2LVuKxRWM-37" style="edgeStyle=orthogonalEdgeStyle;rounded=0;orthogonalLoop=1;jettySize=auto;html=1;" edge="1" parent="1" source="DjwpSO35BmB2LVuKxRWM-38" target="DjwpSO35BmB2LVuKxRWM-44">
          <mxGeometry relative="1" as="geometry">
            <mxPoint x="1090" y="1150" as="sourcePoint" />
            <Array as="points" />
          </mxGeometry>
        </mxCell>
        <mxCell id="DjwpSO35BmB2LVuKxRWM-38" value="Order Request" style="ellipse;whiteSpace=wrap;html=1;aspect=fixed;fillColor=#f5f5f5;fontColor=#333333;strokeColor=#666666;" vertex="1" parent="1">
          <mxGeometry x="975" y="1130" width="80" height="80" as="geometry" />
        </mxCell>
        <mxCell id="DjwpSO35BmB2LVuKxRWM-39" value="" style="endArrow=classic;html=1;rounded=0;" edge="1" parent="1" source="DjwpSO35BmB2LVuKxRWM-35" target="DjwpSO35BmB2LVuKxRWM-38">
          <mxGeometry width="50" height="50" relative="1" as="geometry">
            <mxPoint x="1215" y="1050" as="sourcePoint" />
            <mxPoint x="1265" y="1000" as="targetPoint" />
            <Array as="points">
              <mxPoint x="1015" y="860" />
            </Array>
          </mxGeometry>
        </mxCell>
        <mxCell id="DjwpSO35BmB2LVuKxRWM-40" value="" style="endArrow=classic;html=1;rounded=0;entryX=0.063;entryY=0.625;entryDx=0;entryDy=0;entryPerimeter=0;" edge="1" parent="1" target="DjwpSO35BmB2LVuKxRWM-38">
          <mxGeometry width="50" height="50" relative="1" as="geometry">
            <mxPoint x="800" y="1180" as="sourcePoint" />
            <mxPoint x="1300" y="1230" as="targetPoint" />
          </mxGeometry>
        </mxCell>
        <mxCell id="DjwpSO35BmB2LVuKxRWM-41" value="&lt;font style=&quot;font-size: 10px;&quot;&gt;Payment Request&lt;/font&gt;" style="text;html=1;strokeColor=none;fillColor=none;align=center;verticalAlign=middle;whiteSpace=wrap;rounded=0;" vertex="1" parent="1">
          <mxGeometry x="845" y="1140" width="90" height="30" as="geometry" />
        </mxCell>
        <mxCell id="DjwpSO35BmB2LVuKxRWM-42" value="&lt;font style=&quot;font-size: 10px;&quot;&gt;Response&lt;/font&gt;" style="text;html=1;strokeColor=none;fillColor=none;align=center;verticalAlign=middle;whiteSpace=wrap;rounded=0;" vertex="1" parent="1">
          <mxGeometry x="845" y="1180" width="90" height="30" as="geometry" />
        </mxCell>
        <mxCell id="DjwpSO35BmB2LVuKxRWM-43" value="&lt;font style=&quot;font-size: 10px;&quot;&gt;Requests order&lt;/font&gt;" style="text;html=1;strokeColor=none;fillColor=none;align=center;verticalAlign=middle;whiteSpace=wrap;rounded=0;" vertex="1" parent="1">
          <mxGeometry x="1020" y="940" width="90" height="30" as="geometry" />
        </mxCell>
        <mxCell id="DjwpSO35BmB2LVuKxRWM-44" value="Waitress" style="rounded=1;whiteSpace=wrap;html=1;fillColor=#dae8fc;strokeColor=#6c8ebf;" vertex="1" parent="1">
          <mxGeometry x="1210" y="1130" width="130" height="80" as="geometry" />
        </mxCell>
        <mxCell id="DjwpSO35BmB2LVuKxRWM-45" value="&lt;span style=&quot;font-size: 10px;&quot;&gt;Notified&lt;/span&gt;" style="text;html=1;strokeColor=none;fillColor=none;align=center;verticalAlign=middle;whiteSpace=wrap;rounded=0;" vertex="1" parent="1">
          <mxGeometry x="1080" y="1140" width="90" height="30" as="geometry" />
        </mxCell>
        <mxCell id="DjwpSO35BmB2LVuKxRWM-46" value="Kitchen Display System&lt;br&gt;(KDS)" style="rounded=0;whiteSpace=wrap;html=1;fillColor=#dae8fc;strokeColor=#6c8ebf;" vertex="1" parent="1">
          <mxGeometry x="1190" y="1440" width="120" height="90" as="geometry" />
        </mxCell>
        <mxCell id="DjwpSO35BmB2LVuKxRWM-47" value="" style="endArrow=classic;html=1;rounded=0;" edge="1" parent="1" source="DjwpSO35BmB2LVuKxRWM-38" target="DjwpSO35BmB2LVuKxRWM-46">
          <mxGeometry width="50" height="50" relative="1" as="geometry">
            <mxPoint x="1170" y="1260" as="sourcePoint" />
            <mxPoint x="1220" y="1210" as="targetPoint" />
            <Array as="points">
              <mxPoint x="1015" y="1485" />
            </Array>
          </mxGeometry>
        </mxCell>
        <mxCell id="DjwpSO35BmB2LVuKxRWM-48" value="&lt;span style=&quot;font-size: 10px;&quot;&gt;Order Processing&lt;/span&gt;" style="text;html=1;strokeColor=none;fillColor=none;align=center;verticalAlign=middle;whiteSpace=wrap;rounded=0;" vertex="1" parent="1">
          <mxGeometry x="1020" y="1450" width="90" height="30" as="geometry" />
        </mxCell>
        <mxCell id="DjwpSO35BmB2LVuKxRWM-49" value="" style="endArrow=classic;html=1;rounded=0;exitX=0.445;exitY=0.021;exitDx=0;exitDy=0;exitPerimeter=0;" edge="1" parent="1" target="DjwpSO35BmB2LVuKxRWM-34">
          <mxGeometry width="50" height="50" relative="1" as="geometry">
            <mxPoint x="1238.3999999999999" y="1441.89" as="sourcePoint" />
            <mxPoint x="1237.3940695449126" y="1359.9980588086182" as="targetPoint" />
          </mxGeometry>
        </mxCell>
        <mxCell id="DjwpSO35BmB2LVuKxRWM-50" value="&lt;span style=&quot;font-size: 10px;&quot;&gt;Order Ready&lt;/span&gt;" style="text;html=1;strokeColor=none;fillColor=none;align=center;verticalAlign=middle;whiteSpace=wrap;rounded=0;" vertex="1" parent="1">
          <mxGeometry x="1230" y="1380" width="90" height="30" as="geometry" />
        </mxCell>
        <mxCell id="DjwpSO35BmB2LVuKxRWM-51" value="" style="endArrow=classic;html=1;rounded=0;exitX=0.5;exitY=0;exitDx=0;exitDy=0;" edge="1" parent="1" source="DjwpSO35BmB2LVuKxRWM-44" target="DjwpSO35BmB2LVuKxRWM-56">
          <mxGeometry width="50" height="50" relative="1" as="geometry">
            <mxPoint x="1170" y="1130" as="sourcePoint" />
            <mxPoint x="1220" y="1080" as="targetPoint" />
          </mxGeometry>
        </mxCell>
        <mxCell id="DjwpSO35BmB2LVuKxRWM-52" value="&lt;span style=&quot;font-size: 10px;&quot;&gt;Order Delivery&lt;/span&gt;" style="text;html=1;strokeColor=none;fillColor=none;align=center;verticalAlign=middle;whiteSpace=wrap;rounded=0;" vertex="1" parent="1">
          <mxGeometry x="1270" y="1070" width="90" height="30" as="geometry" />
        </mxCell>
        <mxCell id="DjwpSO35BmB2LVuKxRWM-53" value="&lt;span style=&quot;font-size: 10px;&quot;&gt;Order Ready&lt;/span&gt;" style="text;html=1;strokeColor=none;fillColor=none;align=center;verticalAlign=middle;whiteSpace=wrap;rounded=0;" vertex="1" parent="1">
          <mxGeometry x="1230" y="1230" width="90" height="30" as="geometry" />
        </mxCell>
        <mxCell id="DjwpSO35BmB2LVuKxRWM-54" style="edgeStyle=orthogonalEdgeStyle;rounded=0;orthogonalLoop=1;jettySize=auto;html=1;entryX=1;entryY=0.5;entryDx=0;entryDy=0;" edge="1" parent="1" source="DjwpSO35BmB2LVuKxRWM-55" target="DjwpSO35BmB2LVuKxRWM-67">
          <mxGeometry relative="1" as="geometry" />
        </mxCell>
        <mxCell id="DjwpSO35BmB2LVuKxRWM-55" value="Staff" style="rounded=1;whiteSpace=wrap;html=1;fillColor=#dae8fc;strokeColor=#6c8ebf;" vertex="1" parent="1">
          <mxGeometry x="1740" y="1425" width="130" height="80" as="geometry" />
        </mxCell>
        <mxCell id="DjwpSO35BmB2LVuKxRWM-56" value="Order Successfully&lt;br&gt;Delivered" style="ellipse;whiteSpace=wrap;html=1;aspect=fixed;fillColor=#f5f5f5;fontColor=#333333;strokeColor=#666666;" vertex="1" parent="1">
          <mxGeometry x="1235" y="970" width="80" height="80" as="geometry" />
        </mxCell>
        <mxCell id="DjwpSO35BmB2LVuKxRWM-57" value="&lt;span style=&quot;font-size: 10px;&quot;&gt;Order Delivered&lt;/span&gt;" style="text;html=1;strokeColor=none;fillColor=none;align=center;verticalAlign=middle;whiteSpace=wrap;rounded=0;" vertex="1" parent="1">
          <mxGeometry x="1270" y="920" width="90" height="30" as="geometry" />
        </mxCell>
        <mxCell id="DjwpSO35BmB2LVuKxRWM-58" value="" style="endArrow=classic;html=1;rounded=0;" edge="1" parent="1" source="DjwpSO35BmB2LVuKxRWM-56" target="DjwpSO35BmB2LVuKxRWM-35">
          <mxGeometry width="50" height="50" relative="1" as="geometry">
            <mxPoint x="1285" y="1140" as="sourcePoint" />
            <mxPoint x="1285" y="1040" as="targetPoint" />
          </mxGeometry>
        </mxCell>
        <mxCell id="DjwpSO35BmB2LVuKxRWM-59" value="DBMS&lt;br&gt;" style="rounded=0;whiteSpace=wrap;html=1;fillColor=#dae8fc;strokeColor=#6c8ebf;" vertex="1" parent="1">
          <mxGeometry x="1535" y="960" width="120" height="90" as="geometry" />
        </mxCell>
        <mxCell id="DjwpSO35BmB2LVuKxRWM-60" value="" style="endArrow=classic;html=1;rounded=0;exitX=1;exitY=0.5;exitDx=0;exitDy=0;entryX=-0.015;entryY=0.571;entryDx=0;entryDy=0;entryPerimeter=0;" edge="1" parent="1" source="DjwpSO35BmB2LVuKxRWM-56" target="DjwpSO35BmB2LVuKxRWM-59">
          <mxGeometry width="50" height="50" relative="1" as="geometry">
            <mxPoint x="1450" y="1100" as="sourcePoint" />
            <mxPoint x="1500" y="1050" as="targetPoint" />
          </mxGeometry>
        </mxCell>
        <mxCell id="DjwpSO35BmB2LVuKxRWM-61" style="edgeStyle=orthogonalEdgeStyle;rounded=0;orthogonalLoop=1;jettySize=auto;html=1;entryX=0.5;entryY=0;entryDx=0;entryDy=0;" edge="1" parent="1" source="DjwpSO35BmB2LVuKxRWM-62" target="DjwpSO35BmB2LVuKxRWM-59">
          <mxGeometry relative="1" as="geometry" />
        </mxCell>
        <mxCell id="DjwpSO35BmB2LVuKxRWM-62" value="Register" style="ellipse;whiteSpace=wrap;html=1;aspect=fixed;fillColor=#f5f5f5;fontColor=#333333;strokeColor=#666666;" vertex="1" parent="1">
          <mxGeometry x="1555" y="810" width="80" height="80" as="geometry" />
        </mxCell>
        <mxCell id="DjwpSO35BmB2LVuKxRWM-63" value="" style="endArrow=classic;html=1;rounded=0;exitX=1.015;exitY=0.341;exitDx=0;exitDy=0;exitPerimeter=0;" edge="1" parent="1" source="DjwpSO35BmB2LVuKxRWM-35" target="DjwpSO35BmB2LVuKxRWM-62">
          <mxGeometry width="50" height="50" relative="1" as="geometry">
            <mxPoint x="1440" y="1050" as="sourcePoint" />
            <mxPoint x="1490" y="1000" as="targetPoint" />
            <Array as="points" />
          </mxGeometry>
        </mxCell>
        <mxCell id="DjwpSO35BmB2LVuKxRWM-64" value="&lt;span style=&quot;font-size: 10px;&quot;&gt;New&amp;nbsp; Customer&lt;/span&gt;" style="text;html=1;strokeColor=none;fillColor=none;align=center;verticalAlign=middle;whiteSpace=wrap;rounded=0;" vertex="1" parent="1">
          <mxGeometry x="1390" y="820" width="90" height="30" as="geometry" />
        </mxCell>
        <mxCell id="DjwpSO35BmB2LVuKxRWM-65" value="&lt;span style=&quot;font-size: 10px;&quot;&gt;Save Order&lt;/span&gt;" style="text;html=1;strokeColor=none;fillColor=none;align=center;verticalAlign=middle;whiteSpace=wrap;rounded=0;" vertex="1" parent="1">
          <mxGeometry x="1380" y="1010" width="90" height="30" as="geometry" />
        </mxCell>
        <mxCell id="DjwpSO35BmB2LVuKxRWM-66" style="edgeStyle=orthogonalEdgeStyle;rounded=0;orthogonalLoop=1;jettySize=auto;html=1;entryX=0.5;entryY=1;entryDx=0;entryDy=0;" edge="1" parent="1" source="DjwpSO35BmB2LVuKxRWM-67" target="DjwpSO35BmB2LVuKxRWM-71">
          <mxGeometry relative="1" as="geometry" />
        </mxCell>
        <mxCell id="DjwpSO35BmB2LVuKxRWM-67" value="Update" style="ellipse;whiteSpace=wrap;html=1;aspect=fixed;fillColor=#f5f5f5;fontColor=#333333;strokeColor=#666666;" vertex="1" parent="1">
          <mxGeometry x="1560" y="1425" width="80" height="80" as="geometry" />
        </mxCell>
        <mxCell id="DjwpSO35BmB2LVuKxRWM-68" value="&lt;span style=&quot;font-size: 10px;&quot;&gt;Save Changes&lt;/span&gt;" style="text;html=1;strokeColor=none;fillColor=none;align=center;verticalAlign=middle;whiteSpace=wrap;rounded=0;" vertex="1" parent="1">
          <mxGeometry x="1600" y="1070" width="90" height="30" as="geometry" />
        </mxCell>
        <mxCell id="DjwpSO35BmB2LVuKxRWM-69" value="&lt;span style=&quot;font-size: 10px;&quot;&gt;Update data&lt;/span&gt;" style="text;html=1;strokeColor=none;fillColor=none;align=center;verticalAlign=middle;whiteSpace=wrap;rounded=0;" vertex="1" parent="1">
          <mxGeometry x="1645" y="1440" width="90" height="30" as="geometry" />
        </mxCell>
        <mxCell id="DjwpSO35BmB2LVuKxRWM-70" style="edgeStyle=orthogonalEdgeStyle;rounded=0;orthogonalLoop=1;jettySize=auto;html=1;entryX=0.5;entryY=1;entryDx=0;entryDy=0;" edge="1" parent="1" source="DjwpSO35BmB2LVuKxRWM-71" target="DjwpSO35BmB2LVuKxRWM-74">
          <mxGeometry relative="1" as="geometry" />
        </mxCell>
        <mxCell id="DjwpSO35BmB2LVuKxRWM-71" value="Inventory Management&lt;br&gt;System&lt;br&gt;(IMS)" style="rounded=0;whiteSpace=wrap;html=1;fillColor=#dae8fc;strokeColor=#6c8ebf;" vertex="1" parent="1">
          <mxGeometry x="1540" y="1260" width="120" height="90" as="geometry" />
        </mxCell>
        <mxCell id="DjwpSO35BmB2LVuKxRWM-72" value="&lt;span style=&quot;font-size: 10px;&quot;&gt;Change Management&lt;/span&gt;" style="text;html=1;strokeColor=none;fillColor=none;align=center;verticalAlign=middle;whiteSpace=wrap;rounded=0;" vertex="1" parent="1">
          <mxGeometry x="1590" y="1360" width="90" height="30" as="geometry" />
        </mxCell>
        <mxCell id="DjwpSO35BmB2LVuKxRWM-73" style="edgeStyle=orthogonalEdgeStyle;rounded=0;orthogonalLoop=1;jettySize=auto;html=1;" edge="1" parent="1" source="DjwpSO35BmB2LVuKxRWM-74">
          <mxGeometry relative="1" as="geometry">
            <mxPoint x="1600" y="1050" as="targetPoint" />
          </mxGeometry>
        </mxCell>
        <mxCell id="DjwpSO35BmB2LVuKxRWM-74" value="Apply updates" style="ellipse;whiteSpace=wrap;html=1;aspect=fixed;fillColor=#f5f5f5;fontColor=#333333;strokeColor=#666666;" vertex="1" parent="1">
          <mxGeometry x="1560" y="1110" width="80" height="80" as="geometry" />
        </mxCell>
        <mxCell id="DjwpSO35BmB2LVuKxRWM-75" value="&lt;span style=&quot;font-size: 10px;&quot;&gt;Updates&lt;/span&gt;" style="text;html=1;strokeColor=none;fillColor=none;align=center;verticalAlign=middle;whiteSpace=wrap;rounded=0;" vertex="1" parent="1">
          <mxGeometry x="1600" y="1210" width="90" height="30" as="geometry" />
        </mxCell>
        <mxCell id="DjwpSO35BmB2LVuKxRWM-76" value="Feedback" style="rounded=1;whiteSpace=wrap;html=1;fillColor=#dae8fc;strokeColor=#6c8ebf;" vertex="1" parent="1">
          <mxGeometry x="1740" y="830" width="130" height="80" as="geometry" />
        </mxCell>
        <mxCell id="DjwpSO35BmB2LVuKxRWM-77" value="Record in DBMS" style="ellipse;whiteSpace=wrap;html=1;aspect=fixed;fillColor=#f5f5f5;fontColor=#333333;strokeColor=#666666;" vertex="1" parent="1">
          <mxGeometry x="1765" y="965" width="80" height="80" as="geometry" />
        </mxCell>
        <mxCell id="DjwpSO35BmB2LVuKxRWM-78" style="edgeStyle=orthogonalEdgeStyle;rounded=0;orthogonalLoop=1;jettySize=auto;html=1;" edge="1" parent="1" source="DjwpSO35BmB2LVuKxRWM-76" target="DjwpSO35BmB2LVuKxRWM-77">
          <mxGeometry relative="1" as="geometry">
            <mxPoint x="1605" y="900" as="sourcePoint" />
            <mxPoint x="1605" y="970" as="targetPoint" />
          </mxGeometry>
        </mxCell>
        <mxCell id="DjwpSO35BmB2LVuKxRWM-79" value="&lt;span style=&quot;font-size: 10px;&quot;&gt;Save Customer&lt;/span&gt;" style="text;html=1;strokeColor=none;fillColor=none;align=center;verticalAlign=middle;whiteSpace=wrap;rounded=0;" vertex="1" parent="1">
          <mxGeometry x="1590" y="910" width="90" height="30" as="geometry" />
        </mxCell>
        <mxCell id="DjwpSO35BmB2LVuKxRWM-80" value="&lt;span style=&quot;font-size: 10px;&quot;&gt;Store Info&lt;/span&gt;" style="text;html=1;strokeColor=none;fillColor=none;align=center;verticalAlign=middle;whiteSpace=wrap;rounded=0;" vertex="1" parent="1">
          <mxGeometry x="1730" y="935" width="90" height="30" as="geometry" />
        </mxCell>
        <mxCell id="DjwpSO35BmB2LVuKxRWM-81" style="edgeStyle=orthogonalEdgeStyle;rounded=0;orthogonalLoop=1;jettySize=auto;html=1;" edge="1" parent="1" source="DjwpSO35BmB2LVuKxRWM-77" target="DjwpSO35BmB2LVuKxRWM-59">
          <mxGeometry relative="1" as="geometry">
            <mxPoint x="1815" y="920" as="sourcePoint" />
            <mxPoint x="1815" y="995" as="targetPoint" />
          </mxGeometry>
        </mxCell>
        <mxCell id="DjwpSO35BmB2LVuKxRWM-82" value="&lt;span style=&quot;font-size: 10px;&quot;&gt;Record&amp;nbsp;&lt;/span&gt;" style="text;html=1;strokeColor=none;fillColor=none;align=center;verticalAlign=middle;whiteSpace=wrap;rounded=0;" vertex="1" parent="1">
          <mxGeometry x="1685" y="980" width="90" height="30" as="geometry" />
        </mxCell>
        <mxCell id="DjwpSO35BmB2LVuKxRWM-83" value="" style="endArrow=classic;html=1;rounded=0;" edge="1" parent="1" source="DjwpSO35BmB2LVuKxRWM-35" target="DjwpSO35BmB2LVuKxRWM-84">
          <mxGeometry width="50" height="50" relative="1" as="geometry">
            <mxPoint x="1352" y="857" as="sourcePoint" />
            <mxPoint x="1490" y="760" as="targetPoint" />
            <Array as="points">
              <mxPoint x="1275" y="760" />
            </Array>
          </mxGeometry>
        </mxCell>
        <mxCell id="DjwpSO35BmB2LVuKxRWM-84" value="Customer Review" style="ellipse;whiteSpace=wrap;html=1;aspect=fixed;fillColor=#f5f5f5;fontColor=#333333;strokeColor=#666666;" vertex="1" parent="1">
          <mxGeometry x="1550" y="720" width="80" height="80" as="geometry" />
        </mxCell>
        <mxCell id="DjwpSO35BmB2LVuKxRWM-85" value="&lt;span style=&quot;font-size: 10px;&quot;&gt;Rating order&lt;/span&gt;" style="text;html=1;strokeColor=none;fillColor=none;align=center;verticalAlign=middle;whiteSpace=wrap;rounded=0;" vertex="1" parent="1">
          <mxGeometry x="1400" y="760" width="90" height="30" as="geometry" />
        </mxCell>
        <mxCell id="DjwpSO35BmB2LVuKxRWM-86" value="&lt;span style=&quot;font-size: 10px;&quot;&gt;Send Feedback&lt;/span&gt;" style="text;html=1;strokeColor=none;fillColor=none;align=center;verticalAlign=middle;whiteSpace=wrap;rounded=0;" vertex="1" parent="1">
          <mxGeometry x="1680" y="760" width="90" height="30" as="geometry" />
        </mxCell>
        <mxCell id="DjwpSO35BmB2LVuKxRWM-87" style="edgeStyle=orthogonalEdgeStyle;rounded=0;orthogonalLoop=1;jettySize=auto;html=1;entryX=0.5;entryY=0;entryDx=0;entryDy=0;" edge="1" parent="1" source="DjwpSO35BmB2LVuKxRWM-84" target="DjwpSO35BmB2LVuKxRWM-76">
          <mxGeometry relative="1" as="geometry">
            <mxPoint x="1815" y="920" as="sourcePoint" />
            <mxPoint x="1815" y="975" as="targetPoint" />
          </mxGeometry>
        </mxCell>
        <mxCell id="DjwpSO35BmB2LVuKxRWM-88" value="Too many calls from customers due to various issues faced by customers like complaints, delivery issues, and technical problems that leads to line traffic." style="rounded=0;whiteSpace=wrap;html=1;fillColor=#f5f5f5;fontColor=#333333;strokeColor=#666666;" vertex="1" parent="1">
          <mxGeometry x="2460" y="90" width="170" height="110" as="geometry" />
        </mxCell>
        <mxCell id="DjwpSO35BmB2LVuKxRWM-89" value="" style="endArrow=classic;html=1;rounded=0;exitX=0.995;exitY=0.45;exitDx=0;exitDy=0;exitPerimeter=0;" edge="1" parent="1" source="DjwpSO35BmB2LVuKxRWM-88">
          <mxGeometry width="50" height="50" relative="1" as="geometry">
            <mxPoint x="2830" y="340" as="sourcePoint" />
            <mxPoint x="2730" y="140" as="targetPoint" />
          </mxGeometry>
        </mxCell>
        <mxCell id="DjwpSO35BmB2LVuKxRWM-90" value="" style="edgeStyle=orthogonalEdgeStyle;rounded=0;orthogonalLoop=1;jettySize=auto;html=1;" edge="1" parent="1" source="DjwpSO35BmB2LVuKxRWM-93" target="DjwpSO35BmB2LVuKxRWM-94">
          <mxGeometry relative="1" as="geometry" />
        </mxCell>
        <mxCell id="DjwpSO35BmB2LVuKxRWM-91" value="Implementing a real-time chat feature on the website to provide instant support to customers with new problems, thereby reducing the need for them to call in." style="rounded=0;whiteSpace=wrap;html=1;fillColor=#A8A8A8;fontColor=#333333;strokeColor=#666666;" vertex="1" parent="1">
          <mxGeometry x="2730" y="90" width="170" height="110" as="geometry" />
        </mxCell>
        <mxCell id="DjwpSO35BmB2LVuKxRWM-92" value="" style="endArrow=classic;html=1;rounded=0;exitX=0.995;exitY=0.45;exitDx=0;exitDy=0;exitPerimeter=0;" edge="1" parent="1">
          <mxGeometry width="50" height="50" relative="1" as="geometry">
            <mxPoint x="2900" y="140" as="sourcePoint" />
            <mxPoint x="3001" y="140" as="targetPoint" />
          </mxGeometry>
        </mxCell>
        <mxCell id="DjwpSO35BmB2LVuKxRWM-93" value="Chat boxes cannot be used by people who has visual impairments." style="rounded=0;whiteSpace=wrap;html=1;fillColor=#f5f5f5;fontColor=#333333;strokeColor=#666666;" vertex="1" parent="1">
          <mxGeometry x="3000" y="90" width="170" height="110" as="geometry" />
        </mxCell>
        <mxCell id="DjwpSO35BmB2LVuKxRWM-94" value="Tools such as screen readers and speech-to-text converters should be used.." style="rounded=0;whiteSpace=wrap;html=1;fillColor=#A8A8A8;fontColor=#333333;strokeColor=#666666;" vertex="1" parent="1">
          <mxGeometry x="3260" y="90" width="170" height="110" as="geometry" />
        </mxCell>
        <mxCell id="DjwpSO35BmB2LVuKxRWM-95" value="Customer" style="rounded=0;whiteSpace=wrap;html=1;fillColor=#D6D6D6;fontColor=#333333;strokeColor=#666666;" vertex="1" parent="1">
          <mxGeometry x="2310" y="730" width="140" height="90" as="geometry" />
        </mxCell>
        <mxCell id="DjwpSO35BmB2LVuKxRWM-96" value="Supplies &lt;br&gt;(food, beverages)" style="rounded=0;whiteSpace=wrap;html=1;fillColor=#D6D6D6;fontColor=#333333;strokeColor=#666666;" vertex="1" parent="1">
          <mxGeometry x="2930" y="728" width="140" height="90" as="geometry" />
        </mxCell>
        <mxCell id="DjwpSO35BmB2LVuKxRWM-97" value="&lt;span style=&quot;font-size: 10px;&quot;&gt;1&lt;/span&gt;" style="text;html=1;strokeColor=none;fillColor=none;align=center;verticalAlign=middle;whiteSpace=wrap;rounded=0;" vertex="1" parent="1">
          <mxGeometry x="2450" y="748" width="30" height="20" as="geometry" />
        </mxCell>
        <mxCell id="DjwpSO35BmB2LVuKxRWM-98" value="&lt;span style=&quot;font-size: 10px;&quot;&gt;n&lt;/span&gt;" style="text;html=1;strokeColor=none;fillColor=none;align=center;verticalAlign=middle;whiteSpace=wrap;rounded=0;" vertex="1" parent="1">
          <mxGeometry x="2590" y="748" width="30" height="20" as="geometry" />
        </mxCell>
        <mxCell id="DjwpSO35BmB2LVuKxRWM-99" value="Supplier" style="rounded=0;whiteSpace=wrap;html=1;fillColor=#D6D6D6;fontColor=#333333;strokeColor=#666666;" vertex="1" parent="1">
          <mxGeometry x="2930" y="534" width="140" height="90" as="geometry" />
        </mxCell>
        <mxCell id="DjwpSO35BmB2LVuKxRWM-100" value="&lt;span style=&quot;font-size: 10px;&quot;&gt;1&lt;/span&gt;" style="text;html=1;strokeColor=none;fillColor=none;align=center;verticalAlign=middle;whiteSpace=wrap;rounded=0;" vertex="1" parent="1">
          <mxGeometry x="3000" y="628" width="30" height="20" as="geometry" />
        </mxCell>
        <mxCell id="DjwpSO35BmB2LVuKxRWM-101" value="&lt;span style=&quot;font-size: 10px;&quot;&gt;n&lt;/span&gt;" style="text;html=1;strokeColor=none;fillColor=none;align=center;verticalAlign=middle;whiteSpace=wrap;rounded=0;" vertex="1" parent="1">
          <mxGeometry x="3000" y="708" width="30" height="20" as="geometry" />
        </mxCell>
        <mxCell id="DjwpSO35BmB2LVuKxRWM-102" value="Order" style="rounded=0;whiteSpace=wrap;html=1;fillColor=#D6D6D6;fontColor=#333333;strokeColor=#666666;" vertex="1" parent="1">
          <mxGeometry x="2620" y="728" width="140" height="90" as="geometry" />
        </mxCell>
        <mxCell id="DjwpSO35BmB2LVuKxRWM-103" value="&lt;span style=&quot;font-size: 10px;&quot;&gt;1&lt;/span&gt;" style="text;html=1;strokeColor=none;fillColor=none;align=center;verticalAlign=middle;whiteSpace=wrap;rounded=0;" vertex="1" parent="1">
          <mxGeometry x="2760" y="748" width="30" height="20" as="geometry" />
        </mxCell>
        <mxCell id="DjwpSO35BmB2LVuKxRWM-104" value="&lt;span style=&quot;font-size: 10px;&quot;&gt;n&lt;/span&gt;" style="text;html=1;strokeColor=none;fillColor=none;align=center;verticalAlign=middle;whiteSpace=wrap;rounded=0;" vertex="1" parent="1">
          <mxGeometry x="2900" y="748" width="30" height="20" as="geometry" />
        </mxCell>
        <mxCell id="DjwpSO35BmB2LVuKxRWM-105" value="Payment" style="rounded=0;whiteSpace=wrap;html=1;fillColor=#D6D6D6;fontColor=#333333;strokeColor=#666666;" vertex="1" parent="1">
          <mxGeometry x="2620" y="538" width="140" height="90" as="geometry" />
        </mxCell>
        <mxCell id="DjwpSO35BmB2LVuKxRWM-106" value="" style="endArrow=none;html=1;rounded=0;" edge="1" parent="1" source="DjwpSO35BmB2LVuKxRWM-95" target="DjwpSO35BmB2LVuKxRWM-102">
          <mxGeometry width="50" height="50" relative="1" as="geometry">
            <mxPoint x="2760" y="780" as="sourcePoint" />
            <mxPoint x="2810" y="730" as="targetPoint" />
          </mxGeometry>
        </mxCell>
        <mxCell id="DjwpSO35BmB2LVuKxRWM-107" value="" style="endArrow=none;html=1;rounded=0;" edge="1" parent="1" source="DjwpSO35BmB2LVuKxRWM-102" target="DjwpSO35BmB2LVuKxRWM-96">
          <mxGeometry width="50" height="50" relative="1" as="geometry">
            <mxPoint x="2460" y="780" as="sourcePoint" />
            <mxPoint x="2820" y="790" as="targetPoint" />
          </mxGeometry>
        </mxCell>
        <mxCell id="DjwpSO35BmB2LVuKxRWM-108" value="" style="endArrow=none;html=1;rounded=0;" edge="1" parent="1" source="DjwpSO35BmB2LVuKxRWM-99" target="DjwpSO35BmB2LVuKxRWM-96">
          <mxGeometry width="50" height="50" relative="1" as="geometry">
            <mxPoint x="2770" y="783" as="sourcePoint" />
            <mxPoint x="2940" y="783" as="targetPoint" />
          </mxGeometry>
        </mxCell>
        <mxCell id="DjwpSO35BmB2LVuKxRWM-109" value="" style="endArrow=none;html=1;rounded=0;" edge="1" parent="1" source="DjwpSO35BmB2LVuKxRWM-105" target="DjwpSO35BmB2LVuKxRWM-102">
          <mxGeometry width="50" height="50" relative="1" as="geometry">
            <mxPoint x="3010" y="634" as="sourcePoint" />
            <mxPoint x="3010" y="738" as="targetPoint" />
          </mxGeometry>
        </mxCell>
        <mxCell id="DjwpSO35BmB2LVuKxRWM-110" value="&lt;span style=&quot;font-size: 10px;&quot;&gt;1&lt;/span&gt;" style="text;html=1;strokeColor=none;fillColor=none;align=center;verticalAlign=middle;whiteSpace=wrap;rounded=0;" vertex="1" parent="1">
          <mxGeometry x="2450" y="560" width="30" height="20" as="geometry" />
        </mxCell>
        <mxCell id="DjwpSO35BmB2LVuKxRWM-111" value="&lt;span style=&quot;font-size: 10px;&quot;&gt;1&lt;/span&gt;" style="text;html=1;strokeColor=none;fillColor=none;align=center;verticalAlign=middle;whiteSpace=wrap;rounded=0;" vertex="1" parent="1">
          <mxGeometry x="2690" y="702" width="30" height="20" as="geometry" />
        </mxCell>
        <mxCell id="DjwpSO35BmB2LVuKxRWM-112" value="Review" style="rounded=0;whiteSpace=wrap;html=1;fillColor=#D6D6D6;fontColor=#333333;strokeColor=#666666;" vertex="1" parent="1">
          <mxGeometry x="2310" y="930" width="140" height="90" as="geometry" />
        </mxCell>
        <mxCell id="DjwpSO35BmB2LVuKxRWM-113" value="" style="endArrow=none;html=1;rounded=0;" edge="1" parent="1" source="DjwpSO35BmB2LVuKxRWM-95" target="DjwpSO35BmB2LVuKxRWM-112">
          <mxGeometry width="50" height="50" relative="1" as="geometry">
            <mxPoint x="2460" y="785" as="sourcePoint" />
            <mxPoint x="2630" y="783" as="targetPoint" />
          </mxGeometry>
        </mxCell>
        <mxCell id="DjwpSO35BmB2LVuKxRWM-114" value="&lt;span style=&quot;font-size: 10px;&quot;&gt;1&lt;/span&gt;" style="text;html=1;strokeColor=none;fillColor=none;align=center;verticalAlign=middle;whiteSpace=wrap;rounded=0;" vertex="1" parent="1">
          <mxGeometry x="2380" y="824" width="30" height="22" as="geometry" />
        </mxCell>
        <mxCell id="DjwpSO35BmB2LVuKxRWM-115" value="&lt;span style=&quot;font-size: 10px;&quot;&gt;n&lt;/span&gt;" style="text;html=1;strokeColor=none;fillColor=none;align=center;verticalAlign=middle;whiteSpace=wrap;rounded=0;" vertex="1" parent="1">
          <mxGeometry x="2380" y="900" width="30" height="22" as="geometry" />
        </mxCell>
        <mxCell id="DjwpSO35BmB2LVuKxRWM-116" value="Inventory Management" style="rounded=0;whiteSpace=wrap;html=1;fillColor=#D6D6D6;fontColor=#333333;strokeColor=#666666;" vertex="1" parent="1">
          <mxGeometry x="2930" y="935" width="140" height="90" as="geometry" />
        </mxCell>
        <mxCell id="DjwpSO35BmB2LVuKxRWM-117" value="" style="endArrow=none;html=1;rounded=0;" edge="1" parent="1" source="DjwpSO35BmB2LVuKxRWM-96" target="DjwpSO35BmB2LVuKxRWM-116">
          <mxGeometry width="50" height="50" relative="1" as="geometry">
            <mxPoint x="2770" y="783" as="sourcePoint" />
            <mxPoint x="3040" y="1010" as="targetPoint" />
          </mxGeometry>
        </mxCell>
        <mxCell id="DjwpSO35BmB2LVuKxRWM-118" value="&lt;span style=&quot;font-size: 10px;&quot;&gt;n&lt;/span&gt;" style="text;html=1;strokeColor=none;fillColor=none;align=center;verticalAlign=middle;whiteSpace=wrap;rounded=0;" vertex="1" parent="1">
          <mxGeometry x="3000" y="824" width="30" height="20" as="geometry" />
        </mxCell>
        <mxCell id="DjwpSO35BmB2LVuKxRWM-119" value="&lt;span style=&quot;font-size: 10px;&quot;&gt;1&lt;/span&gt;" style="text;html=1;strokeColor=none;fillColor=none;align=center;verticalAlign=middle;whiteSpace=wrap;rounded=0;" vertex="1" parent="1">
          <mxGeometry x="3000" y="915" width="30" height="20" as="geometry" />
        </mxCell>
        <mxCell id="DjwpSO35BmB2LVuKxRWM-120" value="Payment Gate" style="rounded=0;whiteSpace=wrap;html=1;fillColor=#D6D6D6;fontColor=#333333;strokeColor=#666666;" vertex="1" parent="1">
          <mxGeometry x="2310" y="537.75" width="140" height="90" as="geometry" />
        </mxCell>
        <mxCell id="DjwpSO35BmB2LVuKxRWM-121" value="" style="endArrow=none;html=1;rounded=0;" edge="1" parent="1" source="DjwpSO35BmB2LVuKxRWM-105" target="DjwpSO35BmB2LVuKxRWM-120">
          <mxGeometry width="50" height="50" relative="1" as="geometry">
            <mxPoint x="2700" y="638" as="sourcePoint" />
            <mxPoint x="2700" y="738" as="targetPoint" />
          </mxGeometry>
        </mxCell>
        <mxCell id="DjwpSO35BmB2LVuKxRWM-122" value="&lt;span style=&quot;font-size: 10px;&quot;&gt;n&lt;/span&gt;" style="text;html=1;strokeColor=none;fillColor=none;align=center;verticalAlign=middle;whiteSpace=wrap;rounded=0;" vertex="1" parent="1">
          <mxGeometry x="2590" y="560" width="30" height="20" as="geometry" />
        </mxCell>
        <mxCell id="DjwpSO35BmB2LVuKxRWM-123" value="Delivery Service" style="rounded=0;whiteSpace=wrap;html=1;fillColor=#D6D6D6;fontColor=#333333;strokeColor=#666666;" vertex="1" parent="1">
          <mxGeometry x="2620" y="935" width="140" height="90" as="geometry" />
        </mxCell>
        <mxCell id="DjwpSO35BmB2LVuKxRWM-124" value="&lt;span style=&quot;font-size: 10px;&quot;&gt;1&lt;/span&gt;" style="text;html=1;strokeColor=none;fillColor=none;align=center;verticalAlign=middle;whiteSpace=wrap;rounded=0;" vertex="1" parent="1">
          <mxGeometry x="2690" y="628" width="30" height="20" as="geometry" />
        </mxCell>
        <mxCell id="DjwpSO35BmB2LVuKxRWM-125" value="" style="endArrow=none;html=1;rounded=0;" edge="1" parent="1">
          <mxGeometry width="50" height="50" relative="1" as="geometry">
            <mxPoint x="2690" y="818" as="sourcePoint" />
            <mxPoint x="2690" y="935" as="targetPoint" />
          </mxGeometry>
        </mxCell>
        <mxCell id="DjwpSO35BmB2LVuKxRWM-126" value="&lt;span style=&quot;font-size: 10px;&quot;&gt;1&lt;/span&gt;" style="text;html=1;strokeColor=none;fillColor=none;align=center;verticalAlign=middle;whiteSpace=wrap;rounded=0;" vertex="1" parent="1">
          <mxGeometry x="2690" y="824" width="30" height="20" as="geometry" />
        </mxCell>
        <mxCell id="DjwpSO35BmB2LVuKxRWM-127" value="&lt;span style=&quot;font-size: 10px;&quot;&gt;0,1&lt;/span&gt;" style="text;html=1;strokeColor=none;fillColor=none;align=center;verticalAlign=middle;whiteSpace=wrap;rounded=0;" vertex="1" parent="1">
          <mxGeometry x="2690" y="915" width="30" height="20" as="geometry" />
        </mxCell>
        <mxCell id="DjwpSO35BmB2LVuKxRWM-128" value="Waiter/ Waitress" style="shape=umlActor;verticalLabelPosition=bottom;verticalAlign=top;html=1;outlineConnect=0;" vertex="1" parent="1">
          <mxGeometry x="2490" y="1180" width="30" height="60" as="geometry" />
        </mxCell>
        <mxCell id="DjwpSO35BmB2LVuKxRWM-129" value="Customer" style="shape=umlActor;verticalLabelPosition=bottom;verticalAlign=top;html=1;outlineConnect=0;" vertex="1" parent="1">
          <mxGeometry x="2380" y="1485" width="30" height="60" as="geometry" />
        </mxCell>
        <mxCell id="DjwpSO35BmB2LVuKxRWM-130" value="Cook" style="shape=umlActor;verticalLabelPosition=bottom;verticalAlign=top;html=1;outlineConnect=0;" vertex="1" parent="1">
          <mxGeometry x="2920" y="1260" width="30" height="60" as="geometry" />
        </mxCell>
        <mxCell id="DjwpSO35BmB2LVuKxRWM-131" value="Order" style="ellipse;whiteSpace=wrap;html=1;fillColor=#fff2cc;strokeColor=#d6b656;" vertex="1" parent="1">
          <mxGeometry x="2640" y="1485" width="60" height="30" as="geometry" />
        </mxCell>
        <mxCell id="DjwpSO35BmB2LVuKxRWM-132" value="" style="endArrow=none;html=1;rounded=0;" edge="1" parent="1" source="DjwpSO35BmB2LVuKxRWM-129" target="DjwpSO35BmB2LVuKxRWM-131">
          <mxGeometry width="50" height="50" relative="1" as="geometry">
            <mxPoint x="2610" y="1530" as="sourcePoint" />
            <mxPoint x="2650" y="1420" as="targetPoint" />
          </mxGeometry>
        </mxCell>
        <mxCell id="DjwpSO35BmB2LVuKxRWM-133" value="Food" style="ellipse;whiteSpace=wrap;html=1;fillColor=#fff2cc;strokeColor=#d6b656;" vertex="1" parent="1">
          <mxGeometry x="2748.5" y="1425" width="60" height="30" as="geometry" />
        </mxCell>
        <mxCell id="DjwpSO35BmB2LVuKxRWM-134" value="Drink" style="ellipse;whiteSpace=wrap;html=1;fillColor=#fff2cc;strokeColor=#d6b656;" vertex="1" parent="1">
          <mxGeometry x="2785" y="1510" width="60" height="30" as="geometry" />
        </mxCell>
        <mxCell id="DjwpSO35BmB2LVuKxRWM-135" value="" style="endArrow=block;dashed=1;endFill=0;endSize=12;html=1;rounded=0;" edge="1" parent="1" source="DjwpSO35BmB2LVuKxRWM-133" target="DjwpSO35BmB2LVuKxRWM-131">
          <mxGeometry width="160" relative="1" as="geometry">
            <mxPoint x="2540" y="1520" as="sourcePoint" />
            <mxPoint x="2700" y="1520" as="targetPoint" />
          </mxGeometry>
        </mxCell>
        <mxCell id="DjwpSO35BmB2LVuKxRWM-136" value="" style="endArrow=block;dashed=1;endFill=0;endSize=12;html=1;rounded=0;" edge="1" parent="1" source="DjwpSO35BmB2LVuKxRWM-134" target="DjwpSO35BmB2LVuKxRWM-131">
          <mxGeometry width="160" relative="1" as="geometry">
            <mxPoint x="2771" y="1479" as="sourcePoint" />
            <mxPoint x="2679" y="1491" as="targetPoint" />
          </mxGeometry>
        </mxCell>
        <mxCell id="DjwpSO35BmB2LVuKxRWM-137" value="&lt;span style=&quot;font-size: 10px;&quot;&gt;&amp;lt;&amp;lt;extend&amp;gt;&amp;gt;&lt;/span&gt;" style="text;html=1;strokeColor=none;fillColor=none;align=center;verticalAlign=middle;whiteSpace=wrap;rounded=0;" vertex="1" parent="1">
          <mxGeometry x="2730" y="1460" width="80" height="20" as="geometry" />
        </mxCell>
        <mxCell id="DjwpSO35BmB2LVuKxRWM-138" value="&lt;span style=&quot;font-size: 10px;&quot;&gt;&amp;lt;&amp;lt;extend&amp;gt;&amp;gt;&lt;/span&gt;" style="text;html=1;strokeColor=none;fillColor=none;align=center;verticalAlign=middle;whiteSpace=wrap;rounded=0;" vertex="1" parent="1">
          <mxGeometry x="2710" y="1520" width="80" height="20" as="geometry" />
        </mxCell>
        <mxCell id="DjwpSO35BmB2LVuKxRWM-139" value="Payment" style="ellipse;whiteSpace=wrap;html=1;fillColor=#fff2cc;strokeColor=#d6b656;" vertex="1" parent="1">
          <mxGeometry x="2575" y="1590" width="60" height="30" as="geometry" />
        </mxCell>
        <mxCell id="DjwpSO35BmB2LVuKxRWM-140" value="" style="endArrow=none;html=1;rounded=0;" edge="1" parent="1" source="DjwpSO35BmB2LVuKxRWM-129" target="DjwpSO35BmB2LVuKxRWM-139">
          <mxGeometry width="50" height="50" relative="1" as="geometry">
            <mxPoint x="2480" y="1622" as="sourcePoint" />
            <mxPoint x="2670" y="1525" as="targetPoint" />
          </mxGeometry>
        </mxCell>
        <mxCell id="DjwpSO35BmB2LVuKxRWM-141" value="notificaction" style="ellipse;whiteSpace=wrap;html=1;fillColor=#fff2cc;strokeColor=#d6b656;" vertex="1" parent="1">
          <mxGeometry x="2640" y="1375" width="70" height="40" as="geometry" />
        </mxCell>
        <mxCell id="DjwpSO35BmB2LVuKxRWM-142" value="" style="endArrow=none;html=1;rounded=0;" edge="1" parent="1" source="DjwpSO35BmB2LVuKxRWM-141" target="DjwpSO35BmB2LVuKxRWM-128">
          <mxGeometry width="50" height="50" relative="1" as="geometry">
            <mxPoint x="2651" y="1480" as="sourcePoint" />
            <mxPoint x="2654" y="1410" as="targetPoint" />
          </mxGeometry>
        </mxCell>
        <mxCell id="DjwpSO35BmB2LVuKxRWM-143" value="cook food" style="ellipse;whiteSpace=wrap;html=1;fillColor=#fff2cc;strokeColor=#d6b656;" vertex="1" parent="1">
          <mxGeometry x="2660" y="1225" width="70" height="40" as="geometry" />
        </mxCell>
        <mxCell id="DjwpSO35BmB2LVuKxRWM-144" value="" style="endArrow=none;html=1;rounded=0;" edge="1" parent="1" source="DjwpSO35BmB2LVuKxRWM-130" target="DjwpSO35BmB2LVuKxRWM-143">
          <mxGeometry width="50" height="50" relative="1" as="geometry">
            <mxPoint x="2930" y="1305" as="sourcePoint" />
            <mxPoint x="2686" y="1380" as="targetPoint" />
          </mxGeometry>
        </mxCell>
        <mxCell id="DjwpSO35BmB2LVuKxRWM-145" value="credit card" style="ellipse;whiteSpace=wrap;html=1;fillColor=#fff2cc;strokeColor=#d6b656;" vertex="1" parent="1">
          <mxGeometry x="2750" y="1570" width="60" height="30" as="geometry" />
        </mxCell>
        <mxCell id="DjwpSO35BmB2LVuKxRWM-146" value="online banking transfer" style="ellipse;whiteSpace=wrap;html=1;fillColor=#fff2cc;strokeColor=#d6b656;" vertex="1" parent="1">
          <mxGeometry x="2740" y="1635" width="77" height="45" as="geometry" />
        </mxCell>
        <mxCell id="DjwpSO35BmB2LVuKxRWM-147" value="" style="endArrow=block;dashed=1;endFill=0;endSize=12;html=1;rounded=0;" edge="1" parent="1" source="DjwpSO35BmB2LVuKxRWM-139" target="DjwpSO35BmB2LVuKxRWM-145">
          <mxGeometry width="160" relative="1" as="geometry">
            <mxPoint x="2503" y="1645" as="sourcePoint" />
            <mxPoint x="2640" y="1570" as="targetPoint" />
          </mxGeometry>
        </mxCell>
        <mxCell id="DjwpSO35BmB2LVuKxRWM-148" value="" style="endArrow=block;dashed=1;endFill=0;endSize=12;html=1;rounded=0;" edge="1" parent="1" source="DjwpSO35BmB2LVuKxRWM-139" target="DjwpSO35BmB2LVuKxRWM-146">
          <mxGeometry width="160" relative="1" as="geometry">
            <mxPoint x="2734" y="1604" as="sourcePoint" />
            <mxPoint x="2650" y="1670" as="targetPoint" />
          </mxGeometry>
        </mxCell>
        <mxCell id="DjwpSO35BmB2LVuKxRWM-149" value="&lt;span style=&quot;font-size: 10px;&quot;&gt;&amp;lt;&amp;lt;include&amp;gt;&amp;gt;&lt;/span&gt;" style="text;html=1;strokeColor=none;fillColor=none;align=center;verticalAlign=middle;whiteSpace=wrap;rounded=0;" vertex="1" parent="1">
          <mxGeometry x="2650" y="1570" width="80" height="20" as="geometry" />
        </mxCell>
        <mxCell id="DjwpSO35BmB2LVuKxRWM-150" value="&lt;span style=&quot;font-size: 10px;&quot;&gt;&amp;lt;&amp;lt;include&amp;gt;&amp;gt;&lt;/span&gt;" style="text;html=1;strokeColor=none;fillColor=none;align=center;verticalAlign=middle;whiteSpace=wrap;rounded=0;" vertex="1" parent="1">
          <mxGeometry x="2640" y="1635" width="80" height="20" as="geometry" />
        </mxCell>
        <mxCell id="DjwpSO35BmB2LVuKxRWM-151" value="&lt;span style=&quot;font-size: 10px;&quot;&gt;pay&lt;/span&gt;" style="text;html=1;strokeColor=none;fillColor=none;align=center;verticalAlign=middle;whiteSpace=wrap;rounded=0;" vertex="1" parent="1">
          <mxGeometry x="2480" y="1570" width="80" height="20" as="geometry" />
        </mxCell>
        <mxCell id="DjwpSO35BmB2LVuKxRWM-152" value="" style="endArrow=none;html=1;rounded=0;" edge="1" parent="1" source="DjwpSO35BmB2LVuKxRWM-153" target="DjwpSO35BmB2LVuKxRWM-139">
          <mxGeometry width="50" height="50" relative="1" as="geometry">
            <mxPoint x="2850" y="1611" as="sourcePoint" />
            <mxPoint x="2950" y="1633.6644951140065" as="targetPoint" />
          </mxGeometry>
        </mxCell>
        <mxCell id="DjwpSO35BmB2LVuKxRWM-153" value="Payment Gateway" style="shape=umlActor;verticalLabelPosition=bottom;verticalAlign=top;html=1;outlineConnect=0;" vertex="1" parent="1">
          <mxGeometry x="2600" y="1710" width="30" height="60" as="geometry" />
        </mxCell>
        <mxCell id="DjwpSO35BmB2LVuKxRWM-154" value="&lt;span style=&quot;font-size: 10px;&quot;&gt;accept payment&lt;/span&gt;" style="text;html=1;strokeColor=none;fillColor=none;align=center;verticalAlign=middle;whiteSpace=wrap;rounded=0;" vertex="1" parent="1">
          <mxGeometry x="2525" y="1680" width="80" height="20" as="geometry" />
        </mxCell>
        <mxCell id="DjwpSO35BmB2LVuKxRWM-155" value="" style="endArrow=block;dashed=1;endFill=0;endSize=12;html=1;rounded=0;" edge="1" parent="1" source="DjwpSO35BmB2LVuKxRWM-141" target="DjwpSO35BmB2LVuKxRWM-143">
          <mxGeometry width="160" relative="1" as="geometry">
            <mxPoint x="2680" y="1410" as="sourcePoint" />
            <mxPoint x="2660" y="1270" as="targetPoint" />
          </mxGeometry>
        </mxCell>
        <mxCell id="DjwpSO35BmB2LVuKxRWM-156" value="&lt;span style=&quot;font-size: 10px;&quot;&gt;&amp;lt;&amp;lt;include&amp;gt;&amp;gt;&lt;/span&gt;" style="text;html=1;strokeColor=none;fillColor=none;align=center;verticalAlign=middle;whiteSpace=wrap;rounded=0;" vertex="1" parent="1">
          <mxGeometry x="2665" y="1310" width="80" height="20" as="geometry" />
        </mxCell>
        <mxCell id="DjwpSO35BmB2LVuKxRWM-157" value="" style="endArrow=block;dashed=1;endFill=0;endSize=12;html=1;rounded=0;entryX=0.5;entryY=1;entryDx=0;entryDy=0;" edge="1" parent="1" source="DjwpSO35BmB2LVuKxRWM-131" target="DjwpSO35BmB2LVuKxRWM-141">
          <mxGeometry width="160" relative="1" as="geometry">
            <mxPoint x="2721" y="1287" as="sourcePoint" />
            <mxPoint x="2700" y="1440" as="targetPoint" />
          </mxGeometry>
        </mxCell>
        <mxCell id="DjwpSO35BmB2LVuKxRWM-158" value="prepare order" style="text;html=1;strokeColor=none;fillColor=none;align=center;verticalAlign=middle;whiteSpace=wrap;rounded=0;" vertex="1" parent="1">
          <mxGeometry x="2775" y="1240" width="80" height="20" as="geometry" />
        </mxCell>
        <mxCell id="DjwpSO35BmB2LVuKxRWM-159" value="&lt;span style=&quot;font-size: 10px;&quot;&gt;&amp;lt;&amp;lt;include&amp;gt;&amp;gt;&lt;/span&gt;" style="text;html=1;strokeColor=none;fillColor=none;align=center;verticalAlign=middle;whiteSpace=wrap;rounded=0;" vertex="1" parent="1">
          <mxGeometry x="2605" y="1445" width="80" height="20" as="geometry" />
        </mxCell>
        <mxCell id="DjwpSO35BmB2LVuKxRWM-160" value="feedback&lt;br&gt;" style="ellipse;whiteSpace=wrap;html=1;fillColor=#fff2cc;strokeColor=#d6b656;" vertex="1" parent="1">
          <mxGeometry x="2410" y="1410" width="60" height="30" as="geometry" />
        </mxCell>
        <mxCell id="DjwpSO35BmB2LVuKxRWM-161" value="&lt;span style=&quot;font-size: 10px;&quot;&gt;orders&lt;/span&gt;" style="text;html=1;strokeColor=none;fillColor=none;align=center;verticalAlign=middle;whiteSpace=wrap;rounded=0;" vertex="1" parent="1">
          <mxGeometry x="2525" y="1485" width="80" height="20" as="geometry" />
        </mxCell>
        <mxCell id="DjwpSO35BmB2LVuKxRWM-162" value="&lt;span style=&quot;font-size: 10px;&quot;&gt;notify&lt;/span&gt;" style="text;html=1;strokeColor=none;fillColor=none;align=center;verticalAlign=middle;whiteSpace=wrap;rounded=0;" vertex="1" parent="1">
          <mxGeometry x="2555" y="1270" width="80" height="20" as="geometry" />
        </mxCell>
        <mxCell id="DjwpSO35BmB2LVuKxRWM-163" value="" style="endArrow=none;html=1;rounded=0;" edge="1" parent="1" source="DjwpSO35BmB2LVuKxRWM-129" target="DjwpSO35BmB2LVuKxRWM-160">
          <mxGeometry width="50" height="50" relative="1" as="geometry">
            <mxPoint x="2420" y="1524" as="sourcePoint" />
            <mxPoint x="2650" y="1512" as="targetPoint" />
          </mxGeometry>
        </mxCell>
        <mxCell id="DjwpSO35BmB2LVuKxRWM-164" value="" style="endArrow=block;dashed=1;endFill=0;endSize=12;html=1;rounded=0;" edge="1" parent="1" source="DjwpSO35BmB2LVuKxRWM-160" target="DjwpSO35BmB2LVuKxRWM-166">
          <mxGeometry width="160" relative="1" as="geometry">
            <mxPoint x="2450" y="1425" as="sourcePoint" />
            <mxPoint x="2440" y="1335" as="targetPoint" />
          </mxGeometry>
        </mxCell>
        <mxCell id="DjwpSO35BmB2LVuKxRWM-165" value="&lt;span style=&quot;font-size: 10px;&quot;&gt;&amp;lt;&amp;lt;include&amp;gt;&amp;gt;&lt;/span&gt;" style="text;html=1;strokeColor=none;fillColor=none;align=center;verticalAlign=middle;whiteSpace=wrap;rounded=0;" vertex="1" parent="1">
          <mxGeometry x="2365" y="1390" width="80" height="20" as="geometry" />
        </mxCell>
        <mxCell id="DjwpSO35BmB2LVuKxRWM-166" value="complaint" style="ellipse;whiteSpace=wrap;html=1;fillColor=#fff2cc;strokeColor=#d6b656;" vertex="1" parent="1">
          <mxGeometry x="2350" y="1330" width="60" height="30" as="geometry" />
        </mxCell>
        <mxCell id="DjwpSO35BmB2LVuKxRWM-167" value="review" style="ellipse;whiteSpace=wrap;html=1;fillColor=#fff2cc;strokeColor=#d6b656;" vertex="1" parent="1">
          <mxGeometry x="2435" y="1300" width="60" height="30" as="geometry" />
        </mxCell>
        <mxCell id="DjwpSO35BmB2LVuKxRWM-168" value="" style="endArrow=block;dashed=1;endFill=0;endSize=12;html=1;rounded=0;" edge="1" parent="1" source="DjwpSO35BmB2LVuKxRWM-160" target="DjwpSO35BmB2LVuKxRWM-167">
          <mxGeometry width="160" relative="1" as="geometry">
            <mxPoint x="2460" y="1426" as="sourcePoint" />
            <mxPoint x="2410" y="1359" as="targetPoint" />
          </mxGeometry>
        </mxCell>
        <mxCell id="DjwpSO35BmB2LVuKxRWM-169" value="&lt;span style=&quot;font-size: 10px;&quot;&gt;&amp;lt;&amp;lt;include&amp;gt;&amp;gt;&lt;/span&gt;" style="text;html=1;strokeColor=none;fillColor=none;align=center;verticalAlign=middle;whiteSpace=wrap;rounded=0;" vertex="1" parent="1">
          <mxGeometry x="2440" y="1360" width="80" height="20" as="geometry" />
        </mxCell>
        <mxCell id="DjwpSO35BmB2LVuKxRWM-170" value="Administrator" style="shape=umlActor;verticalLabelPosition=bottom;verticalAlign=top;html=1;outlineConnect=0;" vertex="1" parent="1">
          <mxGeometry x="2905" y="1590" width="30" height="60" as="geometry" />
        </mxCell>
        <mxCell id="DjwpSO35BmB2LVuKxRWM-171" value="Update information" style="ellipse;whiteSpace=wrap;html=1;fillColor=#fff2cc;strokeColor=#d6b656;" vertex="1" parent="1">
          <mxGeometry x="2885" y="1507.5" width="70" height="42.5" as="geometry" />
        </mxCell>
        <mxCell id="DjwpSO35BmB2LVuKxRWM-172" value="" style="endArrow=none;html=1;rounded=0;" edge="1" parent="1" source="DjwpSO35BmB2LVuKxRWM-170" target="DjwpSO35BmB2LVuKxRWM-171">
          <mxGeometry width="50" height="50" relative="1" as="geometry">
            <mxPoint x="2845" y="1545" as="sourcePoint" />
            <mxPoint x="3085" y="1552" as="targetPoint" />
          </mxGeometry>
        </mxCell>
        <mxCell id="DjwpSO35BmB2LVuKxRWM-173" value="" style="endArrow=block;dashed=1;endFill=0;endSize=12;html=1;rounded=0;" edge="1" parent="1" source="DjwpSO35BmB2LVuKxRWM-175" target="DjwpSO35BmB2LVuKxRWM-171">
          <mxGeometry width="160" relative="1" as="geometry">
            <mxPoint x="2920" y="1450" as="sourcePoint" />
            <mxPoint x="2920" y="1417.5" as="targetPoint" />
          </mxGeometry>
        </mxCell>
        <mxCell id="DjwpSO35BmB2LVuKxRWM-174" value="&lt;span style=&quot;font-size: 10px;&quot;&gt;&amp;lt;&amp;lt;extend&amp;gt;&amp;gt;&lt;/span&gt;" style="text;html=1;strokeColor=none;fillColor=none;align=center;verticalAlign=middle;whiteSpace=wrap;rounded=0;" vertex="1" parent="1">
          <mxGeometry x="2850" y="1460" width="80" height="20" as="geometry" />
        </mxCell>
        <mxCell id="DjwpSO35BmB2LVuKxRWM-175" value="Customer info change" style="ellipse;whiteSpace=wrap;html=1;fillColor=#fff2cc;strokeColor=#d6b656;" vertex="1" parent="1">
          <mxGeometry x="2830" y="1390" width="90" height="50" as="geometry" />
        </mxCell>
        <mxCell id="DjwpSO35BmB2LVuKxRWM-176" value="Add supply" style="ellipse;whiteSpace=wrap;html=1;fillColor=#fff2cc;strokeColor=#d6b656;" vertex="1" parent="1">
          <mxGeometry x="2935" y="1407.5" width="60" height="30" as="geometry" />
        </mxCell>
        <mxCell id="DjwpSO35BmB2LVuKxRWM-177" value="" style="endArrow=block;dashed=1;endFill=0;endSize=12;html=1;rounded=0;" edge="1" parent="1" source="DjwpSO35BmB2LVuKxRWM-176" target="DjwpSO35BmB2LVuKxRWM-171">
          <mxGeometry width="160" relative="1" as="geometry">
            <mxPoint x="2930" y="1450" as="sourcePoint" />
            <mxPoint x="2890" y="1441.5" as="targetPoint" />
          </mxGeometry>
        </mxCell>
        <mxCell id="DjwpSO35BmB2LVuKxRWM-178" value="&lt;span style=&quot;font-size: 10px;&quot;&gt;&amp;lt;&amp;lt;exclude&amp;gt;&amp;gt;&lt;/span&gt;" style="text;html=1;strokeColor=none;fillColor=none;align=center;verticalAlign=middle;whiteSpace=wrap;rounded=0;" vertex="1" parent="1">
          <mxGeometry x="2940" y="1467.5" width="80" height="20" as="geometry" />
        </mxCell>
        <mxCell id="DjwpSO35BmB2LVuKxRWM-179" value="Order Ready" style="ellipse;whiteSpace=wrap;html=1;fillColor=#fff2cc;strokeColor=#d6b656;" vertex="1" parent="1">
          <mxGeometry x="2550" y="1367.5" width="70" height="40" as="geometry" />
        </mxCell>
        <mxCell id="DjwpSO35BmB2LVuKxRWM-180" value="" style="endArrow=none;html=1;rounded=0;" edge="1" parent="1" source="DjwpSO35BmB2LVuKxRWM-179" target="DjwpSO35BmB2LVuKxRWM-128">
          <mxGeometry width="50" height="50" relative="1" as="geometry">
            <mxPoint x="2669" y="1387" as="sourcePoint" />
            <mxPoint x="2530" y="1236" as="targetPoint" />
          </mxGeometry>
        </mxCell>
        <mxCell id="DjwpSO35BmB2LVuKxRWM-181" value="&lt;span style=&quot;font-size: 10px;&quot;&gt;Recieve&lt;/span&gt;" style="text;html=1;strokeColor=none;fillColor=none;align=center;verticalAlign=middle;whiteSpace=wrap;rounded=0;" vertex="1" parent="1">
          <mxGeometry x="2490" y="1430" width="80" height="20" as="geometry" />
        </mxCell>
        <mxCell id="DjwpSO35BmB2LVuKxRWM-182" value="" style="endArrow=none;html=1;rounded=0;" edge="1" parent="1" source="DjwpSO35BmB2LVuKxRWM-129" target="DjwpSO35BmB2LVuKxRWM-179">
          <mxGeometry width="50" height="50" relative="1" as="geometry">
            <mxPoint x="2571" y="1341" as="sourcePoint" />
            <mxPoint x="2529" y="1250" as="targetPoint" />
          </mxGeometry>
        </mxCell>
        <mxCell id="DjwpSO35BmB2LVuKxRWM-183" value="&lt;span style=&quot;font-size: 10px;&quot;&gt;deliver&lt;/span&gt;" style="text;html=1;strokeColor=none;fillColor=none;align=center;verticalAlign=middle;whiteSpace=wrap;rounded=0;" vertex="1" parent="1">
          <mxGeometry x="2495" y="1305" width="80" height="20" as="geometry" />
        </mxCell>
        <mxCell id="DjwpSO35BmB2LVuKxRWM-184" value="&lt;span style=&quot;font-size: 10px;&quot;&gt;register&lt;/span&gt;" style="text;html=1;strokeColor=none;fillColor=none;align=center;verticalAlign=middle;whiteSpace=wrap;rounded=0;" vertex="1" parent="1">
          <mxGeometry x="2440" y="1595" width="80" height="20" as="geometry" />
        </mxCell>
        <mxCell id="DjwpSO35BmB2LVuKxRWM-185" value="Create Account" style="ellipse;whiteSpace=wrap;html=1;fillColor=#fff2cc;strokeColor=#d6b656;" vertex="1" parent="1">
          <mxGeometry x="2460" y="1630" width="60" height="30" as="geometry" />
        </mxCell>
        <mxCell id="DjwpSO35BmB2LVuKxRWM-186" value="" style="endArrow=none;html=1;rounded=0;" edge="1" parent="1" target="DjwpSO35BmB2LVuKxRWM-185">
          <mxGeometry width="50" height="50" relative="1" as="geometry">
            <mxPoint x="2410" y="1544" as="sourcePoint" />
            <mxPoint x="2640" y="1702" as="targetPoint" />
          </mxGeometry>
        </mxCell>
        <mxCell id="DjwpSO35BmB2LVuKxRWM-187" value="Add to Cart" style="ellipse;whiteSpace=wrap;html=1;fillColor=#fff2cc;strokeColor=#d6b656;" vertex="1" parent="1">
          <mxGeometry x="2570" y="1530" width="60" height="30" as="geometry" />
        </mxCell>
        <mxCell id="DjwpSO35BmB2LVuKxRWM-188" value="" style="endArrow=none;html=1;rounded=0;" edge="1" parent="1" source="DjwpSO35BmB2LVuKxRWM-129" target="DjwpSO35BmB2LVuKxRWM-187">
          <mxGeometry width="50" height="50" relative="1" as="geometry">
            <mxPoint x="2390" y="1550" as="sourcePoint" />
            <mxPoint x="2590" y="1742.5" as="targetPoint" />
          </mxGeometry>
        </mxCell>
        <mxCell id="DjwpSO35BmB2LVuKxRWM-189" value="&lt;span style=&quot;font-size: 10px;&quot;&gt;add cart&lt;/span&gt;" style="text;html=1;strokeColor=none;fillColor=none;align=center;verticalAlign=middle;whiteSpace=wrap;rounded=0;" vertex="1" parent="1">
          <mxGeometry x="2480" y="1530" width="80" height="20" as="geometry" />
        </mxCell>
        <mxCell id="DjwpSO35BmB2LVuKxRWM-190" style="edgeStyle=orthogonalEdgeStyle;rounded=0;orthogonalLoop=1;jettySize=auto;html=1;exitX=0.5;exitY=1;exitDx=0;exitDy=0;" edge="1" parent="1" source="DjwpSO35BmB2LVuKxRWM-178" target="DjwpSO35BmB2LVuKxRWM-178">
          <mxGeometry relative="1" as="geometry" />
        </mxCell>
        <mxCell id="DjwpSO35BmB2LVuKxRWM-191" value="&lt;span style=&quot;font-size: 10px;&quot;&gt;view&lt;/span&gt;" style="text;html=1;strokeColor=none;fillColor=none;align=center;verticalAlign=middle;whiteSpace=wrap;rounded=0;" vertex="1" parent="1">
          <mxGeometry x="2350" y="1610" width="80" height="20" as="geometry" />
        </mxCell>
        <mxCell id="DjwpSO35BmB2LVuKxRWM-192" value="Order History" style="ellipse;whiteSpace=wrap;html=1;fillColor=#fff2cc;strokeColor=#d6b656;" vertex="1" parent="1">
          <mxGeometry x="2370" y="1645" width="80" height="35" as="geometry" />
        </mxCell>
        <mxCell id="DjwpSO35BmB2LVuKxRWM-193" value="" style="endArrow=none;html=1;rounded=0;" edge="1" parent="1" source="DjwpSO35BmB2LVuKxRWM-129" target="DjwpSO35BmB2LVuKxRWM-192">
          <mxGeometry width="50" height="50" relative="1" as="geometry">
            <mxPoint x="2420" y="1554" as="sourcePoint" />
            <mxPoint x="2489" y="1641" as="targetPoint" />
          </mxGeometry>
        </mxCell>
      </root>
    </mxGraphModel>
  </diagram>
</mxfile>
